<?xml version="1.0" standalone="no"?>
<!DOCTYPE svg PUBLIC "-//W3C//DTD SVG 20010904//EN"
 "http://www.w3.org/TR/2001/REC-SVG-20010904/DTD/svg10.dtd">
<svg version="1.0" xmlns="http://www.w3.org/2000/svg"
 width="700.000000pt" height="700.000000pt" viewBox="0 0 700.000000 700.000000"
 preserveAspectRatio="xMidYMid meet">
<metadata>
Created by potrace 1.11, written by Peter Selinger 2001-2013
</metadata>
<g transform="translate(0.000000,700.000000) scale(0.100000,-0.100000)"
fill="#000000" stroke="none">
<path d="M3560 5721 c-98 -101 -176 -150 -462 -297 -130 -67 -276 -148 -325
-179 -110 -72 -220 -178 -284 -274 -28 -41 -101 -124 -163 -185 -254 -250
-403 -521 -478 -866 -21 -101 -31 -295 -32 -665 0 -101 23 -174 72 -223 38
-37 113 -183 182 -350 144 -349 430 -645 771 -798 46 -21 91 -45 99 -55 8 -9
51 -28 95 -42 l80 -25 72 -188 c40 -104 73 -190 73 -191 0 -2 -256 -3 -569 -3
-528 0 -574 -1 -629 -19 -220 -68 -396 -257 -485 -521 -49 -146 -55 -129 75
-214 436 -285 918 -457 1478 -528 138 -17 610 -17 750 0 433 53 805 164 1184
354 87 44 305 169 333 192 9 7 -55 219 -88 293 -86 192 -222 333 -394 407
l-70 31 -422 3 -423 3 0 228 0 227 75 33 c338 149 601 401 768 736 19 39 38
81 42 95 4 14 27 64 51 113 25 48 53 110 64 137 11 28 35 64 54 81 44 38 75
119 77 201 5 202 -9 570 -25 651 -66 346 -221 641 -462 883 -322 321 -755 494
-1211 482 -72 -1 -131 -2 -130 -1 1 0 122 66 268 146 209 114 282 149 346 165
44 11 103 32 131 46 51 26 171 130 162 139 -3 3 -87 -39 -187 -94 -173 -95
-186 -100 -265 -109 -46 -6 -105 -10 -132 -10 l-49 0 26 20 c38 30 67 98 67
159 0 50 -13 92 -28 90 -4 -1 -41 -36 -82 -78z"/>
</g>
</svg>
